<mxfile modified="2023-06-15T15:36:59.142Z" host="app.diagrams.net" agent="Mozilla/5.0 (Windows NT 10.0; Win64; x64) AppleWebKit/537.36 (KHTML, like Gecko) Chrome/113.0.0.0 Safari/537.36 OPR/99.0.0.0" etag="nKq3yDH48J4rYm5qQ5E7" version="21.4.0">
  <diagram id="Ht1M8jgEwFfnCIfOTk4-" name="Page-1">
    <mxGraphModel dx="1393" dy="806" grid="1" gridSize="10" guides="1" tooltips="1" connect="1" arrows="1" fold="1" page="0" pageScale="1" pageWidth="1169" pageHeight="827" math="0" shadow="0">
      <root>
        <mxCell id="0" />
        <mxCell id="1" parent="0" />
        <mxCell id="UEzPUAAOIrF-is8g5C7q-74" value="" style="points=[[0,0],[0.25,0],[0.5,0],[0.75,0],[1,0],[1,0.25],[1,0.5],[1,0.75],[1,1],[0.75,1],[0.5,1],[0.25,1],[0,1],[0,0.75],[0,0.5],[0,0.25]];outlineConnect=0;gradientColor=none;html=1;whiteSpace=wrap;fontSize=12;fontStyle=0;shape=mxgraph.aws4.group;grIcon=mxgraph.aws4.group_aws_cloud_alt;strokeColor=#232F3E;fillColor=#FBF6DA;verticalAlign=top;align=left;spacingLeft=30;fontColor=#232F3E;dashed=0;labelBackgroundColor=#ffffff;container=1;pointerEvents=0;collapsible=0;recursiveResize=0;" parent="1" vertex="1">
          <mxGeometry x="20" y="20" width="760" height="550" as="geometry" />
        </mxCell>
        <mxCell id="2Yrpn4c_jcEESnuIKgls-4" value="&lt;font style=&quot;font-size: 14px;&quot; color=&quot;#000000&quot;&gt;API Gateway Endpoint&lt;/font&gt;" style="sketch=0;outlineConnect=0;fontColor=#232F3E;gradientColor=none;fillColor=#B0084D;strokeColor=none;dashed=0;verticalLabelPosition=bottom;verticalAlign=top;align=center;html=1;fontSize=12;fontStyle=0;aspect=fixed;pointerEvents=1;shape=mxgraph.aws4.endpoint;labelBackgroundColor=#FFFFFF;" vertex="1" parent="UEzPUAAOIrF-is8g5C7q-74">
          <mxGeometry x="500" y="355" width="78" height="78" as="geometry" />
        </mxCell>
        <mxCell id="UEzPUAAOIrF-is8g5C7q-98" value="&lt;font style=&quot;font-size: 14px;&quot;&gt;Resources&amp;nbsp;&lt;/font&gt;" style="outlineConnect=0;fontColor=#232F3E;gradientColor=none;fillColor=#277116;strokeColor=none;dashed=0;verticalLabelPosition=bottom;verticalAlign=top;align=center;html=1;fontSize=12;fontStyle=0;aspect=fixed;pointerEvents=1;shape=mxgraph.aws4.bucket;labelBackgroundColor=#ffffff;" parent="UEzPUAAOIrF-is8g5C7q-74" vertex="1">
          <mxGeometry x="370" y="130" width="75" height="78" as="geometry" />
        </mxCell>
        <mxCell id="2Yrpn4c_jcEESnuIKgls-29" value="" style="endArrow=classic;startArrow=classic;html=1;rounded=0;" edge="1" parent="UEzPUAAOIrF-is8g5C7q-74" source="UEzPUAAOIrF-is8g5C7q-98" target="2Yrpn4c_jcEESnuIKgls-49">
          <mxGeometry width="50" height="50" relative="1" as="geometry">
            <mxPoint x="630" y="430" as="sourcePoint" />
            <mxPoint x="650" y="170" as="targetPoint" />
          </mxGeometry>
        </mxCell>
        <mxCell id="2Yrpn4c_jcEESnuIKgls-59" value="&lt;font style=&quot;font-size: 14px;&quot;&gt;read/write/update data&lt;/font&gt;" style="edgeLabel;html=1;align=center;verticalAlign=middle;resizable=0;points=[];" vertex="1" connectable="0" parent="2Yrpn4c_jcEESnuIKgls-29">
          <mxGeometry x="-0.6963" y="-1" relative="1" as="geometry">
            <mxPoint x="84" y="-2" as="offset" />
          </mxGeometry>
        </mxCell>
        <mxCell id="2Yrpn4c_jcEESnuIKgls-30" value="" style="shape=curlyBracket;whiteSpace=wrap;html=1;rounded=1;labelPosition=left;verticalLabelPosition=middle;align=right;verticalAlign=middle;rotation=-180;" vertex="1" parent="UEzPUAAOIrF-is8g5C7q-74">
          <mxGeometry x="320" y="66" width="30" height="206" as="geometry" />
        </mxCell>
        <mxCell id="2Yrpn4c_jcEESnuIKgls-31" value="stockbird_res" style="swimlane;whiteSpace=wrap;html=1;fillColor=#cdeb8b;strokeColor=#36393d;" vertex="1" parent="UEzPUAAOIrF-is8g5C7q-74">
          <mxGeometry x="120" y="74.5" width="190" height="185.5" as="geometry" />
        </mxCell>
        <mxCell id="2Yrpn4c_jcEESnuIKgls-32" value="tweets.csv" style="rounded=0;whiteSpace=wrap;html=1;" vertex="1" parent="2Yrpn4c_jcEESnuIKgls-31">
          <mxGeometry x="10" y="25.5" width="170" height="34" as="geometry" />
        </mxCell>
        <mxCell id="2Yrpn4c_jcEESnuIKgls-34" value="stock_info.json" style="rounded=0;whiteSpace=wrap;html=1;" vertex="1" parent="2Yrpn4c_jcEESnuIKgls-31">
          <mxGeometry x="10" y="145.5" width="170" height="34" as="geometry" />
        </mxCell>
        <mxCell id="2Yrpn4c_jcEESnuIKgls-35" value="stock_XY.json" style="rounded=0;whiteSpace=wrap;html=1;" vertex="1" parent="2Yrpn4c_jcEESnuIKgls-31">
          <mxGeometry x="10" y="65.5" width="170" height="34" as="geometry" />
        </mxCell>
        <mxCell id="2Yrpn4c_jcEESnuIKgls-36" value="..." style="rounded=0;whiteSpace=wrap;html=1;" vertex="1" parent="2Yrpn4c_jcEESnuIKgls-31">
          <mxGeometry x="10" y="105.5" width="170" height="34" as="geometry" />
        </mxCell>
        <mxCell id="2Yrpn4c_jcEESnuIKgls-38" value="" style="endArrow=classic;startArrow=classic;html=1;rounded=0;entryX=0.145;entryY=0.855;entryDx=0;entryDy=0;entryPerimeter=0;" edge="1" parent="UEzPUAAOIrF-is8g5C7q-74" source="2Yrpn4c_jcEESnuIKgls-4" target="2Yrpn4c_jcEESnuIKgls-49">
          <mxGeometry width="50" height="50" relative="1" as="geometry">
            <mxPoint x="560" y="310" as="sourcePoint" />
            <mxPoint x="660" y="180" as="targetPoint" />
            <Array as="points">
              <mxPoint x="540" y="198" />
            </Array>
          </mxGeometry>
        </mxCell>
        <mxCell id="2Yrpn4c_jcEESnuIKgls-54" value="&lt;font style=&quot;font-size: 14px;&quot;&gt;invoke Function&lt;/font&gt;" style="edgeLabel;html=1;align=center;verticalAlign=middle;resizable=0;points=[];" vertex="1" connectable="0" parent="2Yrpn4c_jcEESnuIKgls-38">
          <mxGeometry x="-0.6212" relative="1" as="geometry">
            <mxPoint x="69" y="-97" as="offset" />
          </mxGeometry>
        </mxCell>
        <mxCell id="2Yrpn4c_jcEESnuIKgls-55" value="&lt;font style=&quot;font-size: 14px;&quot;&gt;receive data&lt;/font&gt;" style="edgeLabel;html=1;align=center;verticalAlign=middle;resizable=0;points=[];" vertex="1" connectable="0" parent="2Yrpn4c_jcEESnuIKgls-38">
          <mxGeometry x="-0.759" relative="1" as="geometry">
            <mxPoint as="offset" />
          </mxGeometry>
        </mxCell>
        <mxCell id="2Yrpn4c_jcEESnuIKgls-47" value="&lt;font style=&quot;font-size: 14px;&quot;&gt;Python Packages&lt;/font&gt;" style="outlineConnect=0;fontColor=#232F3E;gradientColor=none;fillColor=#277116;strokeColor=none;dashed=0;verticalLabelPosition=bottom;verticalAlign=top;align=center;html=1;fontSize=12;fontStyle=0;aspect=fixed;pointerEvents=1;shape=mxgraph.aws4.bucket;labelBackgroundColor=#ffffff;" vertex="1" parent="UEzPUAAOIrF-is8g5C7q-74">
          <mxGeometry x="370" y="10" width="75" height="78" as="geometry" />
        </mxCell>
        <mxCell id="2Yrpn4c_jcEESnuIKgls-49" value="&lt;font style=&quot;font-size: 14px;&quot;&gt;AWS Lambda&lt;br&gt;&amp;nbsp;Function&lt;/font&gt;" style="outlineConnect=0;dashed=0;verticalLabelPosition=bottom;verticalAlign=top;align=center;html=1;shape=mxgraph.aws3.lambda_function;fillColor=#F58534;gradientColor=none;" vertex="1" parent="UEzPUAAOIrF-is8g5C7q-74">
          <mxGeometry x="680" y="136" width="69" height="72" as="geometry" />
        </mxCell>
        <mxCell id="2Yrpn4c_jcEESnuIKgls-53" value="" style="endArrow=classic;html=1;rounded=0;exitX=0.5;exitY=0;exitDx=0;exitDy=0;exitPerimeter=0;" edge="1" parent="UEzPUAAOIrF-is8g5C7q-74" source="2Yrpn4c_jcEESnuIKgls-49" target="2Yrpn4c_jcEESnuIKgls-47">
          <mxGeometry width="50" height="50" relative="1" as="geometry">
            <mxPoint x="660" y="80" as="sourcePoint" />
            <mxPoint x="710" y="30" as="targetPoint" />
            <Array as="points">
              <mxPoint x="715" y="49" />
            </Array>
          </mxGeometry>
        </mxCell>
        <mxCell id="2Yrpn4c_jcEESnuIKgls-58" value="&lt;font style=&quot;font-size: 14px;&quot;&gt;import python packages&lt;/font&gt;" style="edgeLabel;html=1;align=center;verticalAlign=middle;resizable=0;points=[];" vertex="1" connectable="0" parent="2Yrpn4c_jcEESnuIKgls-53">
          <mxGeometry x="0.7021" relative="1" as="geometry">
            <mxPoint x="72" as="offset" />
          </mxGeometry>
        </mxCell>
        <mxCell id="2Yrpn4c_jcEESnuIKgls-8" value="Backend" style="fillColor=#ffcc99;strokeColor=#36393d;dashed=1;verticalAlign=top;fontStyle=0;whiteSpace=wrap;html=1;fontSize=25;" vertex="1" parent="1">
          <mxGeometry x="850" y="30" width="290" height="320" as="geometry" />
        </mxCell>
        <mxCell id="2Yrpn4c_jcEESnuIKgls-7" value="Frontend" style="fillColor=#cdeb8b;strokeColor=#36393d;dashed=1;verticalAlign=top;fontStyle=0;whiteSpace=wrap;html=1;fontSize=25;labelBackgroundColor=none;" vertex="1" parent="1">
          <mxGeometry x="850" y="370" width="290" height="240" as="geometry" />
        </mxCell>
        <mxCell id="2Yrpn4c_jcEESnuIKgls-18" value="React Framework" style="rounded=1;whiteSpace=wrap;html=1;fontSize=27;fillColor=#E3F1FF;strokeColor=#36393d;" vertex="1" parent="1">
          <mxGeometry x="870" y="430" width="250" height="130" as="geometry" />
        </mxCell>
        <mxCell id="2Yrpn4c_jcEESnuIKgls-22" value="" style="shape=curlyBracket;whiteSpace=wrap;html=1;rounded=1;labelPosition=left;verticalLabelPosition=middle;align=right;verticalAlign=middle;rotation=-90;" vertex="1" parent="1">
          <mxGeometry x="985" y="490" width="30" height="310" as="geometry" />
        </mxCell>
        <mxCell id="2Yrpn4c_jcEESnuIKgls-25" value="" style="shape=curlyBracket;whiteSpace=wrap;html=1;rounded=1;labelPosition=left;verticalLabelPosition=middle;align=right;verticalAlign=middle;" vertex="1" parent="1">
          <mxGeometry x="790" y="35" width="30" height="310" as="geometry" />
        </mxCell>
        <mxCell id="2Yrpn4c_jcEESnuIKgls-46" value="" style="endArrow=classic;startArrow=classic;html=1;rounded=0;entryX=0;entryY=0.5;entryDx=0;entryDy=0;" edge="1" parent="1" source="2Yrpn4c_jcEESnuIKgls-4" target="2Yrpn4c_jcEESnuIKgls-18">
          <mxGeometry width="50" height="50" relative="1" as="geometry">
            <mxPoint x="650" y="450" as="sourcePoint" />
            <mxPoint x="700" y="400" as="targetPoint" />
            <Array as="points">
              <mxPoint x="760" y="414" />
              <mxPoint x="760" y="495" />
            </Array>
          </mxGeometry>
        </mxCell>
        <mxCell id="2Yrpn4c_jcEESnuIKgls-56" value="&lt;font style=&quot;font-size: 14px;&quot;&gt;receive data&lt;/font&gt;" style="edgeLabel;html=1;align=center;verticalAlign=middle;resizable=0;points=[];" vertex="1" connectable="0" parent="2Yrpn4c_jcEESnuIKgls-46">
          <mxGeometry x="0.7488" y="-1" relative="1" as="geometry">
            <mxPoint x="-15" as="offset" />
          </mxGeometry>
        </mxCell>
        <mxCell id="2Yrpn4c_jcEESnuIKgls-57" value="&lt;font style=&quot;font-size: 14px;&quot;&gt;make request&lt;/font&gt;" style="edgeLabel;html=1;align=center;verticalAlign=middle;resizable=0;points=[];" vertex="1" connectable="0" parent="2Yrpn4c_jcEESnuIKgls-46">
          <mxGeometry x="-0.8055" y="-1" relative="1" as="geometry">
            <mxPoint x="28" y="-1" as="offset" />
          </mxGeometry>
        </mxCell>
        <mxCell id="2Yrpn4c_jcEESnuIKgls-61" value="Local Development" style="fillColor=default;strokeColor=#5A6C86;dashed=1;verticalAlign=top;fontStyle=0;fontColor=#000000;whiteSpace=wrap;html=1;fontSize=25;align=left;" vertex="1" parent="1">
          <mxGeometry x="290" y="610" width="460" height="180" as="geometry" />
        </mxCell>
        <mxCell id="2Yrpn4c_jcEESnuIKgls-63" style="edgeStyle=orthogonalEdgeStyle;rounded=0;orthogonalLoop=1;jettySize=auto;html=1;" edge="1" parent="1" source="2Yrpn4c_jcEESnuIKgls-62" target="2Yrpn4c_jcEESnuIKgls-49">
          <mxGeometry relative="1" as="geometry">
            <Array as="points">
              <mxPoint x="270" y="729" />
              <mxPoint x="270" y="310" />
              <mxPoint x="680" y="310" />
              <mxPoint x="680" y="192" />
            </Array>
          </mxGeometry>
        </mxCell>
        <mxCell id="2Yrpn4c_jcEESnuIKgls-64" value="&lt;font style=&quot;font-size: 13px;&quot;&gt;update Lambda Function&lt;br&gt;contents&lt;/font&gt;" style="edgeLabel;html=1;align=center;verticalAlign=middle;resizable=0;points=[];" vertex="1" connectable="0" parent="2Yrpn4c_jcEESnuIKgls-63">
          <mxGeometry x="0.0375" relative="1" as="geometry">
            <mxPoint x="87" as="offset" />
          </mxGeometry>
        </mxCell>
        <mxCell id="2Yrpn4c_jcEESnuIKgls-65" style="edgeStyle=orthogonalEdgeStyle;rounded=0;orthogonalLoop=1;jettySize=auto;html=1;" edge="1" parent="1" source="2Yrpn4c_jcEESnuIKgls-62" target="2Yrpn4c_jcEESnuIKgls-72">
          <mxGeometry relative="1" as="geometry">
            <mxPoint x="961" y="729" as="targetPoint" />
          </mxGeometry>
        </mxCell>
        <mxCell id="2Yrpn4c_jcEESnuIKgls-66" value="&lt;font style=&quot;font-size: 14px;&quot;&gt;update Frontend contents&lt;/font&gt;" style="edgeLabel;html=1;align=center;verticalAlign=middle;resizable=0;points=[];" vertex="1" connectable="0" parent="2Yrpn4c_jcEESnuIKgls-65">
          <mxGeometry x="0.7159" y="-2" relative="1" as="geometry">
            <mxPoint x="-56" y="-2" as="offset" />
          </mxGeometry>
        </mxCell>
        <mxCell id="2Yrpn4c_jcEESnuIKgls-62" value="" style="rounded=1;whiteSpace=wrap;html=1;fontSize=27;" vertex="1" parent="1">
          <mxGeometry x="300" y="650" width="250" height="130" as="geometry" />
        </mxCell>
        <mxCell id="2Yrpn4c_jcEESnuIKgls-69" value="&lt;font style=&quot;font-size: 18px;&quot;&gt;AWS Toolkit&lt;/font&gt;" style="rounded=1;whiteSpace=wrap;html=1;labelBackgroundColor=none;fillColor=#fad7ac;strokeColor=#b46504;" vertex="1" parent="1">
          <mxGeometry x="310" y="665" width="120" height="100" as="geometry" />
        </mxCell>
        <mxCell id="2Yrpn4c_jcEESnuIKgls-70" value="AWS SAM" style="rounded=1;whiteSpace=wrap;html=1;" vertex="1" parent="1">
          <mxGeometry x="440" y="665" width="70" height="50" as="geometry" />
        </mxCell>
        <mxCell id="2Yrpn4c_jcEESnuIKgls-71" value="AWS CLI" style="rounded=1;whiteSpace=wrap;html=1;" vertex="1" parent="1">
          <mxGeometry x="440" y="715" width="70" height="50" as="geometry" />
        </mxCell>
        <mxCell id="2Yrpn4c_jcEESnuIKgls-92" value="" style="points=[[0,0],[0.25,0],[0.5,0],[0.75,0],[1,0],[1,0.25],[1,0.5],[1,0.75],[1,1],[0.75,1],[0.5,1],[0.25,1],[0,1],[0,0.75],[0,0.5],[0,0.25]];outlineConnect=0;gradientColor=none;html=1;whiteSpace=wrap;fontSize=12;fontStyle=0;shape=mxgraph.aws4.group;grIcon=mxgraph.aws4.group_aws_cloud_alt;strokeColor=#232F3E;fillColor=#fbf6da;verticalAlign=top;align=left;spacingLeft=30;fontColor=#232F3E;dashed=0;labelBackgroundColor=#ffffff;container=1;pointerEvents=0;collapsible=0;recursiveResize=0;" vertex="1" parent="1">
          <mxGeometry x="939" y="660" width="122" height="110" as="geometry" />
        </mxCell>
        <mxCell id="2Yrpn4c_jcEESnuIKgls-72" value="&lt;font style=&quot;font-size: 14px;&quot;&gt;Frontend&amp;nbsp; Bucket&lt;/font&gt;" style="outlineConnect=0;fontColor=#232F3E;gradientColor=none;fillColor=#277116;strokeColor=none;dashed=0;verticalLabelPosition=bottom;verticalAlign=top;align=center;html=1;fontSize=12;fontStyle=0;aspect=fixed;pointerEvents=1;shape=mxgraph.aws4.bucket;labelBackgroundColor=#ffffff;" vertex="1" parent="2Yrpn4c_jcEESnuIKgls-92">
          <mxGeometry x="23.5" y="16" width="75" height="78" as="geometry" />
        </mxCell>
        <mxCell id="2Yrpn4c_jcEESnuIKgls-117" value="stockbird-lambda" style="rounded=0;whiteSpace=wrap;html=1;" vertex="1" parent="1">
          <mxGeometry x="860" y="80" width="270" height="20" as="geometry" />
        </mxCell>
        <mxCell id="2Yrpn4c_jcEESnuIKgls-118" value="stock" style="rounded=0;whiteSpace=wrap;html=1;" vertex="1" parent="1">
          <mxGeometry x="860" y="110" width="140" height="20" as="geometry" />
        </mxCell>
        <mxCell id="2Yrpn4c_jcEESnuIKgls-119" value="twitter" style="rounded=0;whiteSpace=wrap;html=1;" vertex="1" parent="1">
          <mxGeometry x="860" y="170" width="140" height="20" as="geometry" />
        </mxCell>
        <mxCell id="2Yrpn4c_jcEESnuIKgls-120" value="" style="endArrow=classic;html=1;rounded=0;" edge="1" parent="1">
          <mxGeometry width="50" height="50" relative="1" as="geometry">
            <mxPoint x="870" y="130" as="sourcePoint" />
            <mxPoint x="900" y="150" as="targetPoint" />
            <Array as="points">
              <mxPoint x="870" y="150" />
              <mxPoint x="890" y="150" />
            </Array>
          </mxGeometry>
        </mxCell>
        <mxCell id="2Yrpn4c_jcEESnuIKgls-121" value="" style="endArrow=classic;html=1;rounded=0;" edge="1" parent="1">
          <mxGeometry width="50" height="50" relative="1" as="geometry">
            <mxPoint x="870" y="190" as="sourcePoint" />
            <mxPoint x="900" y="210" as="targetPoint" />
            <Array as="points">
              <mxPoint x="870" y="210" />
            </Array>
          </mxGeometry>
        </mxCell>
        <mxCell id="2Yrpn4c_jcEESnuIKgls-122" value="interface" style="rounded=0;whiteSpace=wrap;html=1;" vertex="1" parent="1">
          <mxGeometry x="860" y="260" width="140" height="20" as="geometry" />
        </mxCell>
        <mxCell id="2Yrpn4c_jcEESnuIKgls-123" value="" style="endArrow=classic;html=1;rounded=0;" edge="1" parent="1">
          <mxGeometry width="50" height="50" relative="1" as="geometry">
            <mxPoint x="870" y="280" as="sourcePoint" />
            <mxPoint x="900" y="300" as="targetPoint" />
            <Array as="points">
              <mxPoint x="870" y="300" />
            </Array>
          </mxGeometry>
        </mxCell>
        <mxCell id="2Yrpn4c_jcEESnuIKgls-124" value="lambda_handler" style="rounded=0;whiteSpace=wrap;html=1;" vertex="1" parent="1">
          <mxGeometry x="900" y="290" width="140" height="20" as="geometry" />
        </mxCell>
        <mxCell id="2Yrpn4c_jcEESnuIKgls-126" value="..." style="rounded=0;whiteSpace=wrap;html=1;" vertex="1" parent="1">
          <mxGeometry x="900" y="140" width="100" height="20" as="geometry" />
        </mxCell>
        <mxCell id="2Yrpn4c_jcEESnuIKgls-127" value="..." style="rounded=0;whiteSpace=wrap;html=1;" vertex="1" parent="1">
          <mxGeometry x="900" y="200" width="100" height="20" as="geometry" />
        </mxCell>
        <mxCell id="2Yrpn4c_jcEESnuIKgls-128" value="s3_access" style="rounded=0;whiteSpace=wrap;html=1;" vertex="1" parent="1">
          <mxGeometry x="860" y="230" width="140" height="20" as="geometry" />
        </mxCell>
      </root>
    </mxGraphModel>
  </diagram>
</mxfile>
